{
	"asset":{
		"generator":"Khronos glTF Blender I/O v4.0.44",
		"version":"2.0"
	},
	"scene":0,
	"scenes":[
		{
			"name":"Scene",
			"nodes":[
				0
			]
		}
	],
	"nodes":[
		{
			"mesh":0,
			"name":"Plane",
			"scale":[
				6.594090461730957,
				6.594090461730957,
				6.594090461730957
			]
		}
	],
	"meshes":[
		{
			"name":"Plane",
			"primitives":[
				{
					"attributes":{
						"POSITION":0,
						"NORMAL":1,
						"TEXCOORD_0":2
					},
					"indices":3
				}
			]
		}
	],
	"accessors":[
		{
			"bufferView":0,
			"componentType":5126,
			"count":65536,
			"max":[
				1,
				0.7622040510177612,
				0.6402919292449951
			],
			"min":[
				-1,
				0.2992557883262634,
				-1.5498313903808594
			],
			"type":"VEC3"
		},
		{
			"bufferView":1,
			"componentType":5126,
			"count":65536,
			"type":"VEC3"
		},
		{
			"bufferView":2,
			"componentType":5126,
			"count":65536,
			"type":"VEC2"
		},
		{
			"bufferView":3,
			"componentType":5125,
			"count":98304,
			"type":"SCALAR"
		}
	],
	"bufferViews":[
		{
			"buffer":0,
			"byteLength":786432,
			"byteOffset":0,
			"target":34962
		},
		{
			"buffer":0,
			"byteLength":786432,
			"byteOffset":786432,
			"target":34962
		},
		{
			"buffer":0,
			"byteLength":524288,
			"byteOffset":1572864,
			"target":34962
		},
		{
			"buffer":0,
			"byteLength":393216,
			"byteOffset":2097152,
			"target":34963
		}
	],
	"buffers":[
		{
			"byteLength":2490368,
			"uri":"errain.bin"
		}
	]
}
