{
	"asset":{
		"generator":"Khronos glTF Blender I/O v4.0.44",
		"version":"2.0"
	},
	"scene":0,
	"scenes":[
		{
			"name":"Scene",
			"nodes":[
				0
			]
		}
	],
	"nodes":[
		{
			"mesh":0,
			"name":"Plane",
			"translation":[
				0,
				0,
				-0.03999999910593033
			]
		}
	],
	"materials":[
		{
			"doubleSided":true,
			"name":"Material.001",
			"pbrMetallicRoughness":{
				"baseColorTexture":{
					"index":0
				},
				"metallicFactor":0,
				"roughnessFactor":0.5
			}
		}
	],
	"meshes":[
		{
			"name":"Plane",
			"primitives":[
				{
					"attributes":{
						"POSITION":0,
						"NORMAL":1,
						"TEXCOORD_0":2
					},
					"indices":3,
					"material":0
				}
			]
		}
	],
	"textures":[
		{
			"sampler":0,
			"source":0
		}
	],
	"images":[
		{
			"mimeType":"image/jpeg",
			"name":"Redirect Notice",
			"uri":"Redirect%20Notice.jpg"
		}
	],
	"accessors":[
		{
			"bufferView":0,
			"componentType":5126,
			"count":654481,
			"max":[
				10,
				0,
				10
			],
			"min":[
				-10,
				0,
				-10
			],
			"type":"VEC3"
		},
		{
			"bufferView":1,
			"componentType":5126,
			"count":654481,
			"type":"VEC3"
		},
		{
			"bufferView":2,
			"componentType":5126,
			"count":654481,
			"type":"VEC2"
		},
		{
			"bufferView":3,
			"componentType":5125,
			"count":3917184,
			"type":"SCALAR"
		}
	],
	"bufferViews":[
		{
			"buffer":0,
			"byteLength":7853772,
			"byteOffset":0,
			"target":34962
		},
		{
			"buffer":0,
			"byteLength":7853772,
			"byteOffset":7853772,
			"target":34962
		},
		{
			"buffer":0,
			"byteLength":5235848,
			"byteOffset":15707544,
			"target":34962
		},
		{
			"buffer":0,
			"byteLength":15668736,
			"byteOffset":20943392,
			"target":34963
		}
	],
	"samplers":[
		{
			"magFilter":9729,
			"minFilter":9987
		}
	],
	"buffers":[
		{
			"byteLength":36612128,
			"uri":"terrainblender.bin"
		}
	]
}
